<?xml version="1.0" standalone="no"?>
<!DOCTYPE svg PUBLIC "-//W3C//DTD SVG 20010904//EN"
 "http://www.w3.org/TR/2001/REC-SVG-20010904/DTD/svg10.dtd">
<svg version="1.0" xmlns="http://www.w3.org/2000/svg"
 width="24.000000pt" height="24.000000pt" viewBox="0 0 24.000000 24.000000"
 preserveAspectRatio="xMidYMid meet">

<g transform="translate(0.000000,24.000000) scale(0.100000,-0.100000)"
fill="#FFFFFF" stroke="none">
<path d="M70 191 c0 -12 -8 -21 -22 -24 -20 -3 -21 -4 -5 -11 9 -5 24 -6 32
-2 17 6 21 56 5 56 -5 0 -10 -9 -10 -19z"/>
<path d="M150 192 c0 -10 5 -23 12 -30 15 -15 48 -16 48 -2 0 6 -7 10 -16 10
-9 0 -18 9 -21 20 -7 25 -23 26 -23 2z"/>
<path d="M30 81 c0 -5 9 -11 20 -14 11 -3 20 -12 20 -21 0 -9 5 -16 10 -16 14
0 13 33 -2 48 -14 14 -48 16 -48 3z"/>
<path d="M162 78 c-15 -15 -16 -48 -2 -48 6 0 10 7 10 16 0 9 9 18 20 21 11 3
20 9 20 14 0 13 -34 11 -48 -3z"/>
</g>
</svg>
